<svg width="819" height="1037" viewBox="0 0 819 1037" fill="none" xmlns="http://www.w3.org/2000/svg">
<path d="M369.578 1036.26C307.922 1036.26 0.392578 1029.41 0.392578 894C0.392578 758.593 307.922 751.719 369.578 751.719C431.234 751.719 738.764 758.567 738.764 894C738.764 1029.43 431.208 1036.26 369.578 1036.26ZM76.3367 894C106.699 916.714 207.414 949.843 369.578 949.843C531.743 949.843 632.458 916.714 662.82 894C632.458 871.286 531.743 838.157 369.578 838.157C207.414 838.157 106.699 871.286 76.3367 894Z" fill="#913831"/>
<path d="M564.667 581.839C530.215 581.839 502.183 553.853 502.183 519.459C502.183 485.064 530.215 457.078 564.667 457.078C599.119 457.078 627.151 485.064 627.151 519.459C627.151 553.853 599.119 581.839 564.667 581.839Z" fill="#264123"/>
<path d="M313.458 914.937C268.86 914.937 232.57 878.707 232.57 834.183C232.57 809.014 244.115 785.705 264.201 770.252L271.655 764.516L272.277 755.135C274.658 718.157 272.484 686.424 265.806 660.815C263.088 650.401 259.93 639.393 256.358 628.049L254.132 620.968L247.92 616.885C214.218 594.714 194.106 557.528 194.106 517.397C194.106 474.759 217.247 435.119 254.494 413.929L264.408 408.296L264.977 396.926C266.789 360.981 265.598 328.731 261.379 301.107C255.892 265.11 245.927 229.139 231.716 194.202L230.525 191.256L228.506 188.801C212.407 169.24 203.528 144.51 203.528 119.159C203.528 59.053 252.19 10.084 312.268 9.46386L312.345 9.51554L317.263 9.69643C343.458 10.6009 368.488 20.8598 387.746 38.5868L391.163 41.7394L395.615 43.1348C425.666 52.5669 456.235 59.5181 486.494 63.7819C508.392 66.8828 533.059 68.4333 559.824 68.4333C566.528 68.4333 573.18 68.3299 579.703 68.1749L591.118 67.8648L596.993 58.0969C618.814 21.7901 657.045 0.109375 699.21 0.109375C764.982 0.109375 818.51 53.5488 818.51 119.211C818.51 184.873 764.982 238.313 699.21 238.313C655.44 238.313 615.242 214.436 594.327 175.984L588.659 165.57L576.804 165.131C570.54 164.898 564.224 164.769 557.882 164.769C529.358 164.769 504.095 167.405 482.792 172.651C457.814 178.775 431.128 186.656 403.458 196.114L394.346 199.215L390.826 208.156C378.453 239.553 368.436 269.632 361.059 297.515C354.174 323.537 352 355.812 354.614 393.515L355.442 405.427L366.158 410.725C407.211 430.984 432.732 471.865 432.732 517.423C432.732 557.528 412.646 594.688 379.023 616.859L372.06 621.433L370.196 629.547C367.479 641.305 365.253 653.037 363.544 664.407C359.429 691.799 358.212 723.712 359.946 759.244L360.386 768.004L366.961 773.818C384.355 789.194 394.346 811.21 394.346 834.235C394.346 878.759 358.057 914.988 313.458 914.988V914.937Z" fill="#264123"/>
</svg>
