<svg width="2683" height="500" viewBox="0 0 2683 500" fill="none" xmlns="http://www.w3.org/2000/svg">
<path d="M1847.45 477.863V14.927C1847.45 6.69714 1854.13 0 1862.4 0H1933.29C1938.46 0 1943.3 2.69885 1946.01 7.09697L2171.79 373.274H2149.12V14.927C2149.12 6.69714 2155.8 0 2164.08 0H2225.55C2233.8 0 2240.5 6.66382 2240.5 14.927V477.863C2240.5 486.093 2233.83 492.79 2225.55 492.79H2153.96C2148.76 492.79 2143.95 490.091 2141.22 485.659L1916.14 118.783H1938.8V477.863C1938.8 486.093 1932.12 492.79 1923.85 492.79H1862.37C1854.13 492.79 1847.42 486.126 1847.42 477.863H1847.45Z" fill="#264123"/>
<path d="M2353.58 477.941V14.9718C2353.58 6.74195 2360.25 0.078125 2368.5 0.078125H2667.23C2675.48 0.078125 2682.15 6.74195 2682.15 14.9718V67.1828C2682.15 75.4126 2675.48 82.0765 2667.23 82.0765H2444.92V199.426H2651.65C2659.89 199.426 2666.56 206.09 2666.56 214.32V265.831C2666.56 274.061 2659.89 280.725 2651.65 280.725H2444.92V410.803H2667.23C2675.48 410.803 2682.15 417.467 2682.15 425.696V477.908C2682.15 486.137 2675.48 492.801 2667.23 492.801H2368.5C2360.25 492.801 2353.58 486.137 2353.58 477.908V477.941Z" fill="#264123"/>
<path d="M0.0333053 477.874V15.0384C0.0333053 6.77527 6.74167 0.078125 15.0186 0.078125H315.023C323.3 0.078125 330.008 6.77527 330.008 15.0384V67.1162C330.008 75.3793 323.3 82.0765 315.023 82.0765H91.3462V199.426H283.851C292.128 199.426 298.836 206.124 298.836 214.387V265.765C298.836 274.028 292.128 280.725 283.851 280.725H91.3462V477.841C91.3462 486.104 84.638 492.801 76.3611 492.801H14.9852C6.70826 492.801 0 486.104 0 477.841L0.0333053 477.874Z" fill="#264123"/>
<path d="M1349.4 466.013L1235.42 277.56C1254.75 270.629 1271.13 260.733 1284.55 247.872C1310.28 223.116 1323.13 188.131 1323.13 142.884C1323.13 113.663 1317.36 88.3404 1305.77 66.8829C1294.19 45.4254 1276.14 28.9325 1251.61 17.4041C1227.04 5.84233 1194.7 0.078125 1154.59 0.078125H1006.64C998.395 0.078125 991.687 6.74195 991.687 15.0051V475.175C991.687 484.938 999.596 492.834 1009.38 492.834H1065.31C1075.09 492.834 1083 484.938 1083 475.175V289.954H1141.07C1141.47 289.954 1141.87 289.954 1142.27 289.954L1254.95 484.072C1258.12 489.536 1263.96 492.868 1270.26 492.868H1334.21C1347.99 492.868 1356.47 477.841 1349.36 466.079L1349.4 466.013ZM1219.7 183.533C1211.66 192.729 1201.18 199.093 1188.2 202.625C1175.21 206.157 1160.93 207.923 1145.34 207.923H1083.03V82.0765H1145.34C1160.93 82.0765 1175.18 83.6091 1188.2 86.6745C1201.18 89.7398 1211.69 95.7373 1219.7 104.7C1227.71 113.663 1231.72 126.857 1231.72 144.283C1231.72 161.709 1227.71 174.337 1219.7 183.533Z" fill="#264123"/>
<path d="M1421.86 477.941V14.9718C1421.86 6.74195 1428.53 0.078125 1436.78 0.078125H1735.51C1743.76 0.078125 1750.43 6.74195 1750.43 14.9718V67.1828C1750.43 75.4126 1743.76 82.0765 1735.51 82.0765H1513.2V199.426H1719.93C1728.17 199.426 1734.84 206.09 1734.84 214.32V265.831C1734.84 274.061 1728.17 280.725 1719.93 280.725H1513.2V410.803H1735.51C1743.76 410.803 1750.43 417.467 1750.43 425.696V477.908C1750.43 486.137 1743.76 492.801 1735.51 492.801H1436.78C1428.53 492.801 1421.86 486.137 1421.86 477.908V477.941Z" fill="#264123"/>
<path d="M765.374 5.34375H525.711C511.527 5.34375 498.511 13.1404 491.836 25.6351L370.319 252.771C363.811 264.9 364.345 279.593 371.688 291.255L491.403 481.474C498.445 492.636 510.726 499.433 523.943 499.433H767.21C780.426 499.433 792.708 492.669 799.75 481.474L919.465 291.255C926.807 279.593 927.308 264.933 920.833 252.771L799.316 25.6351C792.641 13.1404 779.625 5.34375 765.441 5.34375H765.374ZM663.148 423.532C554.147 434.294 463.301 343.599 474.114 234.812C482.091 154.28 547.338 89.1746 628.005 81.2114C737.006 70.4493 827.818 161.144 817.038 269.931C809.062 350.463 743.814 415.569 663.148 423.532Z" fill="#264123"/>
</svg>
