<svg width="2355" height="795" viewBox="0 0 2355 795" fill="none" xmlns="http://www.w3.org/2000/svg">
<path d="M758.361 553.936V430.745H839.805V446.825H776.431V482.885H831.494V498.965H776.431V553.936H758.361Z" fill="#913831"/>
<path d="M886.021 555.525C877.749 555.525 870.371 553.584 863.884 549.683C857.398 545.802 852.281 540.435 848.571 533.603C844.862 526.771 842.998 518.989 842.998 510.276C842.998 501.563 844.822 493.8 848.492 487.028C852.142 480.255 857.259 474.928 863.805 471.027C870.351 467.146 877.769 465.185 886.021 465.185C894.272 465.185 901.77 467.106 908.157 470.928C914.524 474.75 919.582 480.097 923.292 486.929C927.001 493.76 928.866 501.543 928.866 510.256C928.866 518.969 927.001 526.751 923.292 533.583C919.582 540.415 914.505 545.782 908.058 549.663C901.631 553.544 894.272 555.505 886.021 555.505V555.525ZM886.021 540.138C891.218 540.138 895.72 538.91 899.568 536.435C903.397 533.96 906.352 530.494 908.415 525.999C910.478 521.524 911.509 516.276 911.509 510.276C911.509 504.276 910.478 498.85 908.415 494.374C906.352 489.899 903.397 486.453 899.568 484.037C895.74 481.622 891.218 480.414 886.021 480.414C880.824 480.414 876.123 481.641 872.295 484.117C868.466 486.592 865.511 490.038 863.448 494.454C861.385 498.87 860.354 504.137 860.354 510.276C860.354 516.415 861.385 521.524 863.448 525.999C865.511 530.474 868.466 533.96 872.295 536.435C876.123 538.91 880.705 540.138 886.021 540.138Z" fill="#913831"/>
<path d="M983.393 555.525C975.122 555.525 967.743 553.584 961.257 549.683C954.771 545.802 949.653 540.435 945.944 533.603C942.234 526.771 940.37 518.989 940.37 510.276C940.37 501.563 942.195 493.8 945.864 487.028C949.514 480.255 954.632 474.928 961.177 471.027C967.723 467.146 975.142 465.185 983.393 465.185C991.645 465.185 999.142 467.106 1005.53 470.928C1011.9 474.75 1016.95 480.097 1020.66 486.929C1024.37 493.76 1026.24 501.543 1026.24 510.256C1026.24 518.969 1024.37 526.751 1020.66 533.583C1016.95 540.415 1011.88 545.782 1005.43 549.663C999.004 553.544 991.645 555.505 983.393 555.505V555.525ZM983.393 540.138C988.59 540.138 993.093 538.91 996.941 536.435C1000.77 533.96 1003.72 530.494 1005.79 525.999C1007.85 521.524 1008.88 516.276 1008.88 510.276C1008.88 504.276 1007.85 498.85 1005.79 494.374C1003.72 489.899 1000.77 486.453 996.941 484.037C993.113 481.622 988.59 480.414 983.393 480.414C978.196 480.414 973.495 481.641 969.667 484.117C965.839 486.592 962.883 490.038 960.82 494.454C958.757 498.87 957.726 504.137 957.726 510.276C957.726 516.415 958.757 521.524 960.82 525.999C962.883 530.474 965.839 533.96 969.667 536.435C973.495 538.91 978.077 540.138 983.393 540.138Z" fill="#913831"/>
<path d="M1076.7 555.532C1068.79 555.532 1061.94 553.552 1056.17 549.611C1050.38 545.671 1045.88 540.245 1042.62 533.354C1039.37 526.462 1037.76 518.779 1037.76 510.284C1037.76 500.976 1039.51 492.956 1042.98 486.243C1046.45 479.53 1051.15 474.342 1057.06 470.679C1062.97 467.035 1069.52 465.193 1076.72 465.193C1081.92 465.193 1086.66 466.263 1090.98 468.381C1095.29 470.5 1098.92 473.451 1101.87 477.213C1104.83 480.996 1106.89 485.412 1108.06 490.461L1103.64 491.867V430.717H1120.81V553.909H1103.64V528.819L1108.77 528.997C1107.25 534.66 1104.95 539.453 1101.87 543.393C1098.8 547.334 1095.11 550.344 1090.8 552.404C1086.5 554.463 1081.8 555.493 1076.72 555.493L1076.7 555.532ZM1080.23 539.631C1085.31 539.631 1089.71 538.403 1093.42 535.928C1097.13 533.453 1100.03 530.007 1102.09 525.591C1104.15 521.175 1105.18 516.066 1105.18 510.303C1105.18 504.541 1104.15 499.432 1102.09 495.016C1100.03 490.6 1097.13 487.174 1093.42 484.758C1089.71 482.342 1085.31 481.134 1080.23 481.134C1075.15 481.134 1070.91 482.342 1067.14 484.758C1063.35 487.174 1060.44 490.6 1058.37 495.016C1056.31 499.432 1055.28 504.541 1055.28 510.303C1055.28 516.066 1056.31 521.175 1058.37 525.591C1060.44 530.007 1063.35 533.453 1067.14 535.928C1070.91 538.403 1075.27 539.631 1080.23 539.631Z" fill="#913831"/>
<path d="M1135.65 507.268V494.356H1179.57V507.268H1135.65Z" fill="#913831"/>
<path d="M1195.32 430.745H1236.04C1247.96 430.745 1257.32 433.458 1264.1 438.884C1270.89 444.31 1274.28 451.914 1274.28 461.676C1274.28 467.578 1272.97 472.786 1270.39 477.32C1267.79 481.855 1264.14 485.36 1259.42 487.836C1266.5 489.955 1271.82 493.638 1275.35 498.885C1278.9 504.133 1280.67 510.767 1280.67 518.767C1280.67 529.837 1277.18 538.471 1270.21 544.669C1263.25 550.847 1253.45 553.956 1240.82 553.956H1195.32V430.745ZM1213.37 482.172H1238.16C1243.59 482.172 1247.98 480.588 1251.35 477.4C1254.72 474.211 1256.39 469.855 1256.39 464.31C1256.39 458.766 1254.62 454.706 1251.07 451.755C1247.52 448.805 1242.5 447.339 1236.02 447.339H1213.37V482.172ZM1213.37 537.322H1239.57C1255.04 537.322 1262.76 530.847 1262.76 517.876C1262.76 511.638 1260.95 506.806 1257.36 503.381C1253.75 499.955 1248.71 498.252 1242.23 498.252H1213.37V537.322Z" fill="#913831"/>
<path d="M1325.44 555.533C1318.95 555.533 1313.22 554.345 1308.26 551.988C1303.3 549.632 1299.47 546.364 1296.75 542.186C1294.04 538.007 1292.69 533.136 1292.69 527.611C1292.69 522.779 1293.68 518.621 1295.7 515.155C1297.71 511.69 1300.3 508.997 1303.5 507.116C1306.45 505.234 1309.85 503.908 1313.67 503.135C1317.5 502.363 1321.61 501.987 1325.97 501.987H1353.76V515.076H1328.45C1326.09 515.076 1323.63 515.274 1321.11 515.69C1318.57 516.106 1316.41 516.957 1314.65 518.245C1313.24 519.314 1312.11 520.641 1311.27 522.225C1310.44 523.809 1310.04 525.67 1310.04 527.789C1310.04 531.908 1311.63 535.215 1314.82 537.691C1318.02 540.166 1322.26 541.394 1327.58 541.394C1332.06 541.394 1336.17 540.364 1339.88 538.305C1343.59 536.245 1346.58 533.413 1348.82 529.829C1351.06 526.245 1352.19 522.146 1352.19 517.551L1358.38 525.69C1357.31 531.809 1355.25 537.156 1352.19 541.691C1349.12 546.226 1345.31 549.671 1340.77 552.028C1336.23 554.384 1331.13 555.572 1325.46 555.572L1325.44 555.533ZM1353.6 553.949L1352.19 537.869V499.155C1352.19 493.036 1350.43 488.323 1346.88 485.016C1343.33 481.709 1338.21 480.065 1331.47 480.065C1326.75 480.065 1322.22 481.016 1317.92 482.897C1313.61 484.778 1309.51 487.848 1305.62 492.085L1294.81 480.956C1300.01 475.531 1305.76 471.57 1312.07 469.015C1318.37 466.481 1325.26 465.213 1332.7 465.213C1344.38 465.213 1353.44 468.184 1359.87 474.144C1366.3 480.105 1369.51 488.442 1369.51 499.155V553.949H1353.58H1353.6Z" fill="#913831"/>
<path d="M1417.51 555.525C1411.36 555.525 1405.95 554.614 1401.23 552.792C1396.51 550.97 1392.46 548.613 1389.11 545.722C1385.74 542.831 1383.06 539.861 1381.05 536.791L1392.92 526.534C1395.16 530.534 1398.37 533.979 1402.58 536.871C1406.76 539.762 1411.82 541.207 1417.71 541.207C1422.91 541.207 1427.01 540.118 1430.01 537.94C1433.02 535.762 1434.53 532.91 1434.53 529.365C1434.53 526.534 1433.58 524.276 1431.69 522.553C1429.81 520.85 1427.33 519.425 1424.26 518.316C1421.18 517.207 1417.83 516.216 1414.16 515.405C1410.85 514.454 1407.5 513.405 1404.06 512.216C1400.63 511.048 1397.54 509.543 1394.76 507.701C1391.98 505.88 1389.74 503.523 1388.04 500.632C1386.33 497.741 1385.48 494.176 1385.48 489.939C1385.48 482.513 1388.33 476.532 1394.07 471.998C1399.8 467.463 1407.38 465.185 1416.82 465.185C1423.54 465.185 1429.67 466.572 1435.23 469.344C1440.78 472.116 1445.08 476.215 1448.14 481.622L1437.35 489.939C1434.99 486.057 1431.95 483.226 1428.22 481.463C1424.51 479.701 1420.47 478.81 1416.1 478.81C1411.98 478.81 1408.53 479.661 1405.75 481.364C1402.97 483.067 1401.58 485.404 1401.58 488.354C1401.58 490.473 1402.2 492.216 1403.45 493.562C1404.7 494.909 1406.64 496.097 1409.3 497.087C1411.96 498.097 1415.23 499.068 1419.12 499.998C1422.77 500.83 1426.5 501.82 1430.27 503.008C1434.04 504.196 1437.53 505.721 1440.72 507.602C1443.91 509.484 1446.49 512.018 1448.52 515.207C1450.52 518.395 1451.53 522.514 1451.53 527.583C1451.53 533.128 1450.12 537.979 1447.29 542.158C1444.45 546.336 1440.5 549.604 1435.42 551.96C1430.35 554.317 1424.4 555.505 1417.55 555.505L1417.51 555.525Z" fill="#913831"/>
<path d="M1504.61 555.525C1497.53 555.525 1491.38 554.336 1486.2 551.98C1481.01 549.623 1476.7 546.356 1473.27 542.178C1469.84 537.999 1467.28 533.227 1465.57 527.86C1463.87 522.494 1463.02 516.87 1463.02 510.969C1463.02 505.068 1463.85 499.384 1465.49 493.919C1467.14 488.434 1469.62 483.542 1472.93 479.245C1476.25 474.948 1480.39 471.522 1485.41 468.988C1490.43 466.453 1496.36 465.185 1503.2 465.185C1510.05 465.185 1515.96 466.334 1520.92 468.631C1525.87 470.928 1529.94 474.116 1533.13 478.176C1536.33 482.235 1538.71 486.81 1540.31 491.879C1541.9 496.949 1542.71 502.315 1542.71 507.959C1542.71 508.553 1542.67 509.642 1542.64 511.226C1542.58 512.81 1542.44 514.315 1542.2 515.741H1480.41C1480.77 523.524 1483.15 529.504 1487.59 533.682C1492.03 537.861 1497.89 539.96 1505.21 539.96C1510.16 539.96 1514.59 539.168 1518.5 537.564C1522.38 535.979 1525.99 533.465 1529.31 530.059L1539.92 541.009C1536.49 544.435 1532.98 547.188 1529.38 549.326C1525.79 551.465 1522.01 553.01 1518.06 554.02C1514.11 555.01 1509.65 555.525 1504.69 555.525H1504.61ZM1525.52 507.088C1525.76 506.137 1525.89 505.206 1525.95 504.256C1526.01 503.305 1526.03 502.375 1526.03 501.424C1526.03 498.711 1525.56 496.058 1524.62 493.463C1523.67 490.869 1522.26 488.552 1520.38 486.473C1518.5 484.414 1516.15 482.77 1513.38 481.523C1510.6 480.275 1507.39 479.661 1503.74 479.661C1498.9 479.661 1494.77 480.75 1491.34 482.928C1487.91 485.107 1485.29 487.958 1483.47 491.503C1481.64 495.048 1480.55 498.869 1480.19 502.988H1531.19L1525.52 507.048V507.088Z" fill="#913831"/>
<path d="M1593.14 555.532C1585.22 555.532 1578.38 553.552 1572.61 549.611C1566.81 545.671 1562.31 540.245 1559.06 533.354C1555.81 526.462 1554.2 518.779 1554.2 510.284C1554.2 500.976 1555.94 492.956 1559.42 486.243C1562.89 479.53 1567.59 474.342 1573.5 470.679C1579.41 467.035 1585.96 465.193 1593.16 465.193C1598.35 465.193 1603.09 466.263 1607.42 468.381C1611.72 470.5 1615.35 473.451 1618.31 477.213C1621.26 480.996 1623.33 485.412 1624.5 490.461L1620.07 491.867V430.717H1637.25V553.909H1620.07V528.819L1625.21 528.997C1623.68 534.66 1621.38 539.453 1618.31 543.393C1615.23 547.334 1611.54 550.344 1607.24 552.404C1602.93 554.463 1598.23 555.493 1593.16 555.493L1593.14 555.532ZM1596.69 539.631C1601.76 539.631 1606.17 538.403 1609.88 535.928C1613.59 533.453 1616.48 530.007 1618.55 525.591C1620.61 521.175 1621.64 516.066 1621.64 510.303C1621.64 504.541 1620.61 499.432 1618.55 495.016C1616.48 490.6 1613.59 487.174 1609.88 484.758C1606.17 482.342 1601.76 481.134 1596.69 481.134C1591.61 481.134 1587.36 482.342 1583.6 484.758C1579.81 487.174 1576.89 490.6 1574.83 495.016C1572.76 499.432 1571.73 504.541 1571.73 510.303C1571.73 516.066 1572.76 521.175 1574.83 525.591C1576.89 530.007 1579.81 533.453 1583.6 535.928C1587.36 538.403 1591.73 539.631 1596.69 539.631Z" fill="#913831"/>
<path d="M758.361 611.655H796.425C806.105 611.655 813.979 613.061 820.069 615.893C826.138 618.725 830.641 622.765 833.517 627.992C836.413 633.24 837.861 639.458 837.861 646.646C837.861 657.261 834.826 665.558 828.737 671.578C822.647 677.598 813.9 681.063 802.455 682.014C800.452 682.132 798.151 682.192 795.552 682.192H776.431V734.867H758.361V611.655ZM776.411 666.271H794.64C799.599 666.271 803.943 665.657 807.652 664.409C811.361 663.182 814.356 661.142 816.598 658.31C818.839 655.478 819.97 651.656 819.97 646.825C819.97 641.993 818.839 638.191 816.598 635.418C814.356 632.646 811.341 630.686 807.573 629.497C803.784 628.329 799.48 627.735 794.64 627.735H776.411V666.271ZM826.694 734.847L794.997 680.053L813.404 677.756L847.402 734.847H826.694Z" fill="#913831"/>
<path d="M893.281 736.421C886.2 736.421 880.051 735.233 874.874 732.876C869.677 730.52 865.373 727.252 861.941 723.074C858.51 718.896 855.951 714.123 854.245 708.757C852.539 703.39 851.686 697.766 851.686 691.865C851.686 685.964 852.519 680.281 854.166 674.815C855.812 669.33 858.292 664.439 861.604 660.142C864.917 655.844 869.062 652.419 874.081 649.884C879.099 647.349 885.03 646.082 891.873 646.082C898.716 646.082 904.627 647.23 909.586 649.527C914.545 651.825 918.611 655.013 921.805 659.072C924.998 663.132 927.379 667.706 928.985 672.776C930.572 677.845 931.385 683.212 931.385 688.855C931.385 689.449 931.346 690.538 931.306 692.123C931.247 693.707 931.108 695.212 930.87 696.638H869.082C869.439 704.42 871.819 710.4 876.263 714.579C880.686 718.757 886.557 720.856 893.876 720.856C898.835 720.856 903.259 720.064 907.166 718.46C911.054 716.876 914.664 714.361 917.977 710.955L928.589 721.906C925.157 725.331 921.646 728.084 918.056 730.223C914.466 732.342 910.677 733.906 906.73 734.916C902.783 735.906 898.32 736.421 893.361 736.421H893.281ZM914.168 688.004C914.406 687.053 914.545 686.123 914.605 685.172C914.664 684.221 914.684 683.291 914.684 682.34C914.684 679.627 914.208 676.974 913.276 674.38C912.323 671.785 910.915 669.469 909.031 667.389C907.146 665.33 904.806 663.686 902.029 662.439C899.252 661.211 896.039 660.577 892.389 660.577C887.549 660.577 883.423 661.666 879.992 663.845C876.56 666.023 873.942 668.875 872.117 672.419C870.292 675.964 869.201 679.786 868.844 683.905H919.841L914.168 687.964V688.004Z" fill="#913831"/>
<path d="M976.312 736.421C970.163 736.421 964.748 735.51 960.027 733.688C955.306 731.866 951.26 729.51 947.908 726.619C944.536 723.727 941.858 720.757 939.854 717.688L951.716 707.43C953.958 711.43 957.171 714.876 961.376 717.767C965.561 720.658 970.619 722.104 976.51 722.104C981.707 722.104 985.813 721.015 988.809 718.836C991.823 716.658 993.331 713.806 993.331 710.262C993.331 707.43 992.379 705.173 990.495 703.45C988.61 701.747 986.131 700.321 983.056 699.212C979.982 698.103 976.629 697.113 972.96 696.301C969.647 695.35 966.295 694.301 962.864 693.113C959.432 691.944 956.338 690.44 953.561 688.598C950.784 686.776 948.542 684.42 946.837 681.528C945.131 678.637 944.278 675.073 944.278 670.835C944.278 663.409 947.134 657.429 952.867 652.894C958.599 648.359 966.176 646.082 975.618 646.082C982.342 646.082 988.471 647.468 994.025 650.24C999.579 653.013 1003.88 657.112 1006.94 662.518L996.148 670.835C993.787 666.954 990.753 664.122 987.023 662.359C983.314 660.597 979.268 659.706 974.904 659.706C970.778 659.706 967.327 660.557 964.55 662.26C961.773 663.963 960.384 666.3 960.384 669.251C960.384 671.37 960.999 673.112 962.249 674.459C963.479 675.805 965.442 676.993 968.1 677.984C970.758 678.994 974.031 679.964 977.919 680.895C981.568 681.726 985.298 682.716 989.066 683.905C992.835 685.093 996.326 686.618 999.52 688.499C1002.71 690.38 1005.29 692.915 1007.32 696.103C1009.32 699.291 1010.33 703.41 1010.33 708.48C1010.33 714.024 1008.92 718.876 1006.09 723.054C1003.25 727.233 999.301 730.5 994.224 732.856C989.146 735.213 983.195 736.401 976.352 736.401L976.312 736.421Z" fill="#913831"/>
<path d="M1063.41 736.421C1056.33 736.421 1050.18 735.233 1045 732.876C1039.81 730.52 1035.5 727.252 1032.07 723.074C1028.64 718.896 1026.08 714.123 1024.37 708.757C1022.67 703.39 1021.81 697.766 1021.81 691.865C1021.81 685.964 1022.65 680.281 1024.29 674.815C1025.94 669.33 1028.42 664.439 1031.73 660.142C1035.05 655.844 1039.19 652.419 1044.21 649.884C1049.23 647.349 1055.16 646.082 1062 646.082C1068.84 646.082 1074.76 647.23 1079.71 649.527C1084.67 651.825 1088.74 655.013 1091.93 659.072C1095.13 663.132 1097.51 667.706 1099.11 672.776C1100.7 677.845 1101.51 683.212 1101.51 688.855C1101.51 689.449 1101.47 690.538 1101.43 692.123C1101.38 693.707 1101.24 695.212 1101 696.638H1039.21C1039.57 704.42 1041.95 710.4 1046.39 714.579C1050.81 718.757 1056.69 720.856 1064.01 720.856C1068.96 720.856 1073.39 720.064 1077.29 718.46C1081.18 716.876 1084.79 714.361 1088.11 710.955L1098.72 721.906C1095.29 725.331 1091.77 728.084 1088.18 730.223C1084.59 732.342 1080.81 733.906 1076.86 734.916C1072.91 735.906 1068.45 736.421 1063.49 736.421H1063.41ZM1084.3 688.004C1084.53 687.053 1084.67 686.123 1084.73 685.172C1084.79 684.221 1084.81 683.291 1084.81 682.34C1084.81 679.627 1084.34 676.974 1083.4 674.38C1082.45 671.785 1081.04 669.469 1079.16 667.389C1077.27 665.33 1074.93 663.686 1072.16 662.439C1069.38 661.211 1066.17 660.577 1062.52 660.577C1057.68 660.577 1053.55 661.666 1050.12 663.845C1046.69 666.023 1044.07 668.875 1042.25 672.419C1040.42 675.964 1039.33 679.786 1038.97 683.905H1089.97L1084.3 687.964V688.004Z" fill="#913831"/>
<path d="M1145.93 736.429C1139.44 736.429 1133.71 735.241 1128.75 732.884C1123.79 730.528 1119.96 727.261 1117.24 723.082C1114.53 718.904 1113.18 714.032 1113.18 708.508C1113.18 703.676 1114.17 699.517 1116.19 696.052C1118.2 692.586 1120.8 689.893 1123.99 688.012C1126.94 686.131 1130.34 684.804 1134.16 684.032C1137.99 683.259 1142.1 682.883 1146.46 682.883H1174.25V695.973H1148.94C1146.58 695.973 1144.12 696.171 1141.6 696.586C1139.06 697.002 1136.9 697.854 1135.14 699.141C1133.73 700.21 1132.6 701.537 1131.76 703.121C1130.93 704.705 1130.53 706.567 1130.53 708.686C1130.53 712.805 1132.12 716.112 1135.32 718.587C1138.51 721.062 1142.75 722.29 1148.07 722.29C1152.55 722.29 1156.66 721.26 1160.37 719.201C1164.08 717.141 1167.07 714.31 1169.31 710.725C1171.55 707.141 1172.69 703.042 1172.69 698.448L1178.87 706.587C1177.8 712.706 1175.74 718.052 1172.69 722.587C1169.61 727.122 1165.8 730.568 1161.26 732.924C1156.72 735.281 1151.62 736.469 1145.95 736.469L1145.93 736.429ZM1174.07 734.845L1172.67 718.765V680.051C1172.67 673.932 1170.9 669.219 1167.35 665.912C1163.8 662.605 1158.68 660.962 1151.94 660.962C1147.22 660.962 1142.69 661.912 1138.39 663.793C1134.09 665.675 1129.98 668.744 1126.09 672.982L1115.28 661.853C1120.48 656.427 1126.23 652.466 1132.54 649.912C1138.85 647.377 1145.73 646.11 1153.17 646.11C1164.85 646.11 1173.91 649.08 1180.34 655.041C1186.77 661.001 1189.98 669.338 1189.98 680.051V734.845H1174.05H1174.07Z" fill="#913831"/>
<path d="M1208.59 734.839V647.708H1226.12V671.214L1222.41 671.926C1223.01 666.738 1224.79 662.243 1227.81 658.401C1230.82 654.579 1234.39 651.569 1238.52 649.391C1242.64 647.213 1246.71 646.124 1250.74 646.124C1253.57 646.124 1256.25 646.441 1258.79 647.094C1261.33 647.748 1263.89 648.837 1266.49 650.362L1258 665.906C1256.69 665.194 1255.04 664.619 1253.04 664.144C1251.03 663.669 1249.15 663.431 1247.36 663.431C1244.65 663.431 1241.99 663.906 1239.39 664.837C1236.79 665.788 1234.45 667.312 1232.39 669.431C1230.33 671.55 1228.76 674.323 1227.69 677.748C1227.21 679.392 1226.83 681.55 1226.54 684.204C1226.24 686.858 1226.1 690.481 1226.1 695.076V734.839H1208.57H1208.59Z" fill="#913831"/>
<path d="M1309.51 736.429C1302.91 736.429 1297.03 735.221 1291.9 732.805C1286.76 730.389 1282.46 727.063 1278.96 722.825C1275.47 718.587 1272.85 713.755 1271.09 708.329C1269.32 702.903 1268.43 697.2 1268.43 691.18C1268.43 685.16 1269.32 679.635 1271.09 674.21C1272.85 668.784 1275.49 663.952 1278.96 659.714C1282.44 655.476 1286.76 652.15 1291.9 649.734C1297.03 647.318 1302.91 646.11 1309.51 646.11C1318 646.11 1325.42 648.169 1331.73 652.288C1338.03 656.407 1342.68 662.665 1345.63 671.021L1330.4 676.843C1328.87 672.249 1326.39 668.487 1322.96 665.536C1319.53 662.586 1315.04 661.12 1309.51 661.12C1303.98 661.12 1299.59 662.566 1296.06 665.457C1292.51 668.348 1289.91 672.051 1288.27 676.586C1286.62 681.121 1285.79 685.992 1285.79 691.161C1285.79 696.329 1286.62 701.24 1288.27 705.834C1289.91 710.428 1292.51 714.151 1296.06 716.963C1299.61 719.795 1304.1 721.201 1309.51 721.201C1314.93 721.201 1319.55 719.755 1322.96 716.864C1326.39 713.973 1328.87 710.171 1330.4 705.458L1345.63 711.28C1342.68 719.755 1338.05 726.072 1331.73 730.191C1325.42 734.31 1318 736.37 1309.51 736.37V736.429Z" fill="#913831"/>
<path d="M1359.97 734.847V611.655H1377.51V666.627L1373.8 667.855C1375.33 663.023 1377.61 659.023 1380.62 655.835C1383.64 652.647 1387.11 650.231 1391.08 648.587C1395.02 646.943 1399.25 646.112 1403.73 646.112C1413.41 646.112 1420.99 648.904 1426.48 654.508C1431.98 660.112 1434.71 668.271 1434.71 678.984V734.847H1417.36V685.36C1417.36 677.004 1415.85 670.865 1412.84 666.984C1409.82 663.102 1405.2 661.142 1398.93 661.142C1391.97 661.142 1386.65 663.597 1383 668.469C1379.33 673.36 1377.51 681.162 1377.51 691.895V734.847H1359.97Z" fill="#913831"/>
<path d="M1496.3 734.847V611.655H1515.06L1576.49 711.519H1572.25V611.655H1590.14V734.847H1571.02L1510.11 634.804H1514.35V734.847H1496.28H1496.3Z" fill="#913831"/>
<path d="M1648.56 736.421C1641.48 736.421 1635.33 735.233 1630.15 732.876C1624.95 730.52 1620.65 727.252 1617.22 723.074C1613.79 718.896 1611.23 714.123 1609.52 708.757C1607.82 703.39 1606.96 697.766 1606.96 691.865C1606.96 685.964 1607.8 680.281 1609.44 674.815C1611.09 669.33 1613.57 664.439 1616.88 660.142C1620.19 655.844 1624.34 652.419 1629.36 649.884C1634.38 647.349 1640.31 646.082 1647.15 646.082C1653.99 646.082 1659.9 647.23 1664.86 649.527C1669.82 651.825 1673.89 655.013 1677.08 659.072C1680.28 663.132 1682.66 667.706 1684.26 672.776C1685.85 677.845 1686.66 683.212 1686.66 688.855C1686.66 689.449 1686.62 690.538 1686.58 692.123C1686.52 693.707 1686.39 695.212 1686.15 696.638H1624.36C1624.72 704.42 1627.1 710.4 1631.54 714.579C1635.98 718.757 1641.83 720.856 1649.15 720.856C1654.11 720.856 1658.54 720.064 1662.44 718.46C1666.33 716.876 1669.94 714.361 1673.25 710.955L1683.87 721.906C1680.43 725.331 1676.92 728.084 1673.33 730.223C1669.74 732.342 1665.95 733.906 1662.01 734.916C1658.06 735.906 1653.6 736.421 1648.64 736.421H1648.56ZM1669.45 688.004C1669.68 687.053 1669.82 686.123 1669.88 685.172C1669.94 684.221 1669.96 683.291 1669.96 682.34C1669.96 679.627 1669.49 676.974 1668.55 674.38C1667.6 671.785 1666.19 669.469 1664.31 667.389C1662.42 665.33 1660.08 663.686 1657.31 662.439C1654.53 661.191 1651.32 660.577 1647.67 660.577C1642.83 660.577 1638.7 661.666 1635.27 663.845C1631.84 666.023 1629.22 668.875 1627.39 672.419C1625.57 675.964 1624.48 679.786 1624.12 683.905H1675.12L1669.45 687.964V688.004Z" fill="#913831"/>
<path d="M1691.22 661.128V647.702H1745.93V661.128H1691.22ZM1731.95 736.417C1727.7 736.417 1723.77 735.585 1720.16 733.941C1716.55 732.298 1713.74 729.605 1711.67 725.902C1709.61 722.199 1708.58 717.387 1708.58 711.485V625.404L1726.11 615.681V706.891C1726.11 711.723 1726.85 715.466 1728.34 718.119C1729.8 720.773 1732.56 722.1 1736.57 722.1C1737.74 722.1 1739.13 721.961 1740.73 721.664C1742.32 721.367 1744.07 720.991 1745.95 720.515V733.941C1743.59 734.773 1741.23 735.387 1738.87 735.803C1736.51 736.219 1734.21 736.417 1731.97 736.417H1731.95Z" fill="#913831"/>
<path d="M1778.16 734.834L1751.96 647.703H1770.37L1787.01 708.517L1806.31 647.703H1821.36L1840.66 708.16L1857.48 647.703H1875.89L1849.51 734.834H1833.76L1813.93 671.902L1794.09 734.834H1778.16Z" fill="#913831"/>
<path d="M1926.53 736.421C1918.26 736.421 1910.88 734.48 1904.4 730.579C1897.91 726.698 1892.79 721.331 1889.08 714.499C1885.37 707.668 1883.51 699.885 1883.51 691.172C1883.51 682.459 1885.33 674.696 1889 667.924C1892.65 661.152 1897.77 655.825 1904.32 651.924C1910.86 648.042 1918.28 646.082 1926.53 646.082C1934.78 646.082 1942.28 648.003 1948.67 651.825C1955.04 655.646 1960.09 660.993 1963.8 667.825C1967.51 674.657 1969.38 682.439 1969.38 691.152C1969.38 699.865 1967.51 707.648 1963.8 714.48C1960.09 721.312 1955.02 726.678 1948.57 730.559C1942.14 734.441 1934.78 736.401 1926.53 736.401V736.421ZM1926.53 721.054C1931.73 721.054 1936.23 719.826 1940.08 717.351C1943.91 714.876 1946.86 711.41 1948.93 706.915C1950.99 702.44 1952.02 697.192 1952.02 691.192C1952.02 685.192 1950.99 679.766 1948.93 675.291C1946.86 670.815 1943.91 667.37 1940.08 664.954C1936.25 662.538 1931.73 661.33 1926.53 661.33C1921.34 661.33 1916.64 662.558 1912.81 665.033C1908.98 667.508 1906.02 670.954 1903.96 675.37C1901.9 679.786 1900.87 685.053 1900.87 691.192C1900.87 697.331 1901.9 702.44 1903.96 706.915C1906.02 711.391 1908.98 714.876 1912.81 717.351C1916.64 719.826 1921.22 721.054 1926.53 721.054Z" fill="#913831"/>
<path d="M1984.95 734.839V647.708H2002.48V671.214L1998.77 671.926C1999.37 666.738 2001.15 662.243 2004.17 658.401C2007.18 654.579 2010.75 651.569 2014.88 649.391C2019.01 647.213 2023.07 646.124 2027.1 646.124C2029.94 646.124 2032.61 646.441 2035.15 647.094C2037.69 647.748 2040.25 648.837 2042.85 650.362L2034.36 665.906C2033.05 665.194 2031.4 664.619 2029.4 664.144C2027.4 663.669 2025.51 663.431 2023.73 663.431C2021.01 663.431 2018.35 663.906 2015.75 664.837C2013.15 665.788 2010.81 667.312 2008.75 669.431C2006.69 671.55 2005.12 674.323 2004.05 677.748C2003.57 679.392 2003.2 681.55 2002.9 684.204C2002.6 686.858 2002.46 690.481 2002.46 695.076V734.839H1984.93H1984.95Z" fill="#913831"/>
<path d="M2053.66 734.847V611.655H2071.19V734.847H2053.66ZM2113.14 734.847L2085.35 691.717L2069.25 709.044V686.945L2107.31 647.696H2129.45L2097.93 680.033L2133.69 734.827H2113.16L2113.14 734.847Z" fill="#913831"/>
<path d="M283.342 794.429C236.094 794.429 0.428223 789.182 0.428223 685.416C0.428223 581.651 236.094 576.384 283.342 576.384C330.59 576.384 566.256 581.631 566.256 685.416C566.256 789.201 330.57 794.429 283.342 794.429ZM58.6256 685.416C81.8926 702.823 159.073 728.21 283.342 728.21C407.611 728.21 484.791 702.823 508.058 685.416C484.791 668.01 407.611 642.623 283.342 642.623C159.073 642.623 81.8926 668.01 58.6256 685.416Z" fill="#913831"/>
<path d="M432.84 446.17C406.439 446.17 384.957 424.724 384.957 398.367C384.957 372.01 406.439 350.564 432.84 350.564C459.241 350.564 480.723 372.01 480.723 398.367C480.723 424.724 459.241 446.17 432.84 446.17Z" fill="#264123"/>
<path d="M240.338 701.463C206.161 701.463 178.352 673.7 178.352 639.58C178.352 620.293 187.198 602.431 202.591 590.589L208.303 586.193L208.779 579.004C210.604 550.667 208.938 526.349 203.821 506.725C201.738 498.745 199.318 490.309 196.581 481.615L194.875 476.19L190.114 473.061C164.288 456.07 148.876 427.574 148.876 396.821C148.876 364.147 166.609 333.77 195.152 317.532L202.749 313.215L203.186 304.502C204.574 276.956 203.662 252.243 200.429 231.074C196.224 203.489 188.587 175.924 177.697 149.151L176.785 146.893L175.238 145.012C162.9 130.022 156.096 111.071 156.096 91.6443C156.096 45.5836 193.387 8.05784 239.425 7.58258L239.485 7.62218L243.254 7.7608C263.327 8.45389 282.508 16.3155 297.266 29.9L299.884 32.3159L303.296 33.3853C326.325 40.6132 349.75 45.9401 372.938 49.2075C389.719 51.5838 408.622 52.7719 429.132 52.7719C434.269 52.7719 439.367 52.6927 444.366 52.5739L453.113 52.3363L457.616 44.8509C474.337 17.0284 503.634 0.414062 535.946 0.414062C586.348 0.414062 627.368 41.3657 627.368 91.6839C627.368 142.002 586.348 182.954 535.946 182.954C502.404 182.954 471.6 164.656 455.573 135.19L451.229 127.21L442.144 126.873C437.344 126.695 432.504 126.596 427.644 126.596C405.786 126.596 386.426 128.616 370.102 132.636C350.96 137.329 330.51 143.368 309.306 150.616L302.324 152.993L299.626 159.844C290.145 183.904 282.468 206.954 276.815 228.321C271.539 248.262 269.873 272.996 271.876 301.888L272.511 311.017L280.723 315.076C312.182 330.601 331.74 361.929 331.74 396.841C331.74 427.574 316.347 456.05 290.581 473.041L285.245 476.546L283.817 482.764C281.734 491.774 280.029 500.764 278.719 509.478C275.566 530.468 274.633 554.924 275.962 582.153L276.299 588.866L281.338 593.322C294.667 605.104 302.324 621.976 302.324 639.62C302.324 673.74 274.514 701.503 240.338 701.503V701.463Z" fill="#264123"/>
<path d="M1858.82 290.117V14.9802C1858.82 10.089 1862.78 6.10871 1867.7 6.10871H1909.83C1912.91 6.10871 1915.78 7.71272 1917.39 10.3266L2051.58 227.956H2038.11V14.9802C2038.11 10.089 2042.08 6.10871 2047 6.10871H2083.53C2088.43 6.10871 2092.42 10.0692 2092.42 14.9802V290.117C2092.42 295.008 2088.45 298.988 2083.53 298.988H2040.99C2037.89 298.988 2035.04 297.384 2033.41 294.75L1899.64 76.7047H1913.11V290.117C1913.11 295.008 1909.14 298.988 1904.22 298.988H1867.68C1862.78 298.988 1858.8 295.028 1858.8 290.117H1858.82Z" fill="#264123"/>
<path d="M2159.62 290.145V14.9884C2159.62 10.0972 2163.59 6.13667 2168.49 6.13667H2346.04C2350.94 6.13667 2354.9 10.0972 2354.9 14.9884V46.019C2354.9 50.9102 2350.94 54.8707 2346.04 54.8707H2213.91V124.615H2336.77C2341.67 124.615 2345.64 128.576 2345.64 133.467V164.082C2345.64 168.973 2341.67 172.933 2336.77 172.933H2213.91V250.242H2346.04C2350.94 250.242 2354.9 254.203 2354.9 259.094V290.125C2354.9 295.016 2350.94 298.976 2346.04 298.976H2168.49C2163.59 298.976 2159.62 295.016 2159.62 290.125V290.145Z" fill="#264123"/>
<path d="M760.843 290.105V15.028C760.843 10.117 764.83 6.13667 769.749 6.13667H948.05C952.97 6.13667 956.957 10.117 956.957 15.028V45.9793C956.957 50.8904 952.97 54.8707 948.05 54.8707H815.113V124.615H929.524C934.443 124.615 938.43 128.595 938.43 133.507V164.042C938.43 168.953 934.443 172.933 929.524 172.933H815.113V290.085C815.113 294.996 811.126 298.976 806.207 298.976H769.729C764.81 298.976 760.823 294.996 760.823 290.085L760.843 290.105Z" fill="#264123"/>
<path d="M1562.81 283.055L1495.07 171.052C1506.56 166.933 1516.3 161.052 1524.27 153.408C1539.56 138.695 1547.2 117.902 1547.2 91.0103C1547.2 73.6435 1543.77 58.5936 1536.88 45.8407C1530 33.0879 1519.27 23.2857 1504.69 16.434C1490.09 9.5625 1470.87 6.13667 1447.03 6.13667H1359.1C1354.2 6.13667 1350.21 10.0972 1350.21 15.0082V288.501C1350.21 294.303 1354.91 298.996 1360.73 298.996H1393.97C1399.78 298.996 1404.48 294.303 1404.48 288.501V178.419H1439C1439.23 178.419 1439.47 178.419 1439.71 178.419L1506.68 293.788C1508.56 297.036 1512.03 299.016 1515.78 299.016H1553.78C1561.98 299.016 1567.01 290.085 1562.79 283.095L1562.81 283.055ZM1485.73 115.169C1480.95 120.635 1474.72 124.417 1467 126.516C1459.29 128.615 1450.8 129.665 1441.54 129.665H1404.5V54.8707H1441.54C1450.8 54.8707 1459.27 55.7816 1467 57.6034C1474.72 59.4253 1480.97 62.9897 1485.73 68.3166C1490.49 73.6435 1492.87 81.4853 1492.87 91.842C1492.87 102.199 1490.49 109.704 1485.73 115.169Z" fill="#264123"/>
<path d="M1605.87 290.145V14.9884C1605.87 10.0972 1609.84 6.13667 1614.74 6.13667H1792.29C1797.19 6.13667 1801.16 10.0972 1801.16 14.9884V46.019C1801.16 50.9102 1797.19 54.8707 1792.29 54.8707H1660.16V124.615H1783.03C1787.92 124.615 1791.89 128.576 1791.89 133.467V164.082C1791.89 168.973 1787.92 172.933 1783.03 172.933H1660.16V250.242H1792.29C1797.19 250.242 1801.16 254.203 1801.16 259.094V290.125C1801.16 295.016 1797.19 298.976 1792.29 298.976H1614.74C1609.84 298.976 1605.87 295.016 1605.87 290.125V290.145Z" fill="#264123"/>
<path d="M1073.27 9.2816C1064.84 9.2816 1057.1 13.9154 1053.14 21.3413L980.917 156.335C977.049 163.543 977.366 172.276 981.73 179.207L1052.88 292.26C1057.07 298.893 1064.36 302.933 1072.22 302.933H1216.8C1224.66 302.933 1231.95 298.913 1236.14 292.26L1307.29 179.207C1311.65 172.276 1311.95 163.563 1308.1 156.335L1235.88 21.3413C1231.91 13.9154 1224.18 9.2816 1215.75 9.2816H1073.27ZM1154.95 257.823C1090.17 264.219 1036.18 210.317 1042.6 145.662C1047.35 97.7989 1086.12 59.1047 1134.07 54.3719C1198.85 47.9757 1252.82 101.878 1246.41 166.533C1241.67 214.396 1202.9 253.09 1154.95 257.823Z" fill="#264123"/>
</svg>
