<svg width="3661" height="841" viewBox="0 0 3661 841" fill="none" xmlns="http://www.w3.org/2000/svg">
<path d="M299.635 840.984C249.593 840.984 -0.00585938 835.426 -0.00585938 725.526C-0.00585938 615.626 249.593 610.047 299.635 610.047C349.676 610.047 599.275 615.605 599.275 725.526C599.275 835.447 349.655 840.984 299.635 840.984ZM61.6323 725.526C86.275 743.962 168.018 770.849 299.635 770.849C431.251 770.849 512.994 743.962 537.637 725.526C512.994 707.09 431.251 680.203 299.635 680.203C168.018 680.203 86.275 707.09 61.6323 725.526Z" fill="#913831"/>
<path d="M457.958 472.126C429.996 472.126 407.244 449.412 407.244 421.497C407.244 393.581 429.996 370.867 457.958 370.867C485.92 370.867 508.672 393.581 508.672 421.497C508.672 449.412 485.92 472.126 457.958 472.126Z" fill="#264123"/>
<path d="M254.077 742.497C217.88 742.497 188.426 713.093 188.426 676.956C188.426 656.528 197.796 637.61 214.098 625.068L220.149 620.412L220.653 612.798C222.586 582.785 220.821 557.03 215.401 536.246C213.195 527.793 210.632 518.859 207.733 509.652L205.926 503.905L200.884 500.591C173.531 482.596 157.208 452.415 157.208 419.844C157.208 385.238 175.989 353.065 206.22 335.867L214.266 331.295L214.729 322.066C216.199 292.892 215.233 266.718 211.808 244.297C207.355 215.081 199.267 185.886 187.733 157.531L186.767 155.14L185.128 153.147C172.061 137.27 164.855 117.199 164.855 96.6241C164.855 47.8401 204.351 8.0957 253.111 7.59234L253.174 7.63429L257.165 7.7811C278.426 8.51517 298.741 16.8416 314.371 31.2293L317.144 33.788L320.757 34.9206C345.148 42.5758 369.959 48.2177 394.517 51.6782C412.29 54.195 432.311 55.4534 454.033 55.4534C459.475 55.4534 464.874 55.3696 470.168 55.2437L479.432 54.992L484.201 47.0641C501.911 17.5966 532.94 0 567.163 0C620.545 0 663.99 43.3728 663.99 96.666C663.99 149.959 620.545 193.332 567.163 193.332C531.638 193.332 499.012 173.953 482.037 142.744L477.437 134.292L467.815 133.936C462.731 133.747 457.605 133.642 452.458 133.642C429.307 133.642 408.803 135.781 391.513 140.039C371.24 145.009 349.581 151.406 327.123 159.083L319.728 161.599L316.871 168.856C306.829 194.339 298.699 218.752 292.711 241.382C287.123 262.502 285.358 288.698 287.48 319.298L288.152 328.966L296.85 333.266C330.169 349.709 350.883 382.889 350.883 419.865C350.883 452.415 334.581 482.575 307.291 500.57L301.64 504.282L300.127 510.868C297.921 520.411 296.115 529.933 294.728 539.161C291.388 561.393 290.4 587.295 291.808 616.133L292.165 623.243L297.501 627.962C311.619 640.441 319.728 658.31 319.728 676.998C319.728 713.135 290.274 742.539 254.077 742.539V742.497Z" fill="#264123"/>
<path d="M2831.35 643.606V183.961C2831.35 175.79 2837.98 169.141 2846.19 169.141H2916.58C2921.71 169.141 2926.52 171.82 2929.2 176.187L3153.38 539.761H3130.88V183.961C3130.88 175.79 3137.5 169.141 3145.72 169.141H3206.76C3214.95 169.141 3221.61 175.757 3221.61 183.961V643.606C3221.61 651.777 3214.98 658.427 3206.76 658.427H3135.68C3130.51 658.427 3125.74 655.747 3123.02 651.347L2899.55 287.079H2922.05V643.606C2922.05 651.777 2915.42 658.427 2907.2 658.427H2846.16C2837.98 658.427 2831.32 651.81 2831.32 643.606H2831.35Z" fill="#264123"/>
<path d="M3333.89 643.684V184.007C3333.89 175.835 3340.52 169.219 3348.7 169.219H3645.32C3653.5 169.219 3660.13 175.835 3660.13 184.007V235.846C3660.13 244.018 3653.5 250.634 3645.32 250.634H3424.59V367.15H3629.84C3638.02 367.15 3644.65 373.766 3644.65 381.938V433.083C3644.65 441.254 3638.02 447.87 3629.84 447.87H3424.59V577.023H3645.32C3653.5 577.023 3660.13 583.64 3660.13 591.811V643.651C3660.13 651.822 3653.5 658.439 3645.32 658.439H3348.7C3340.52 658.439 3333.89 651.822 3333.89 643.651V643.684Z" fill="#264123"/>
<path d="M997.068 643.618V184.073C997.068 175.868 1003.73 169.219 1011.95 169.219H1309.82C1318.04 169.219 1324.7 175.868 1324.7 184.073V235.78C1324.7 243.985 1318.04 250.634 1309.82 250.634H1087.73V367.15H1278.87C1287.09 367.15 1293.75 373.799 1293.75 382.004V433.016C1293.75 441.221 1287.09 447.87 1278.87 447.87H1087.73V643.585C1087.73 651.789 1081.07 658.439 1072.85 658.439H1011.91C1003.7 658.439 997.035 651.789 997.035 643.585L997.068 643.618Z" fill="#264123"/>
<path d="M2336.84 631.841L2223.68 444.728C2242.87 437.846 2259.14 428.021 2272.46 415.251C2298.01 390.671 2310.77 355.935 2310.77 311.009C2310.77 281.996 2305.03 256.854 2293.53 235.549C2282.04 214.244 2264.11 197.868 2239.75 186.422C2215.36 174.942 2183.25 169.219 2143.42 169.219H1996.52C1988.34 169.219 1981.68 175.835 1981.68 184.04V640.938C1981.68 650.631 1989.53 658.472 1999.24 658.472H2054.78C2064.49 658.472 2072.34 650.631 2072.34 640.938V457.034H2130C2130.4 457.034 2130.8 457.034 2131.19 457.034L2243.07 649.771C2246.21 655.197 2252.01 658.505 2258.28 658.505H2321.77C2335.45 658.505 2343.87 643.585 2336.81 631.907L2336.84 631.841ZM2208.07 351.37C2200.09 360.5 2189.68 366.819 2176.79 370.326C2163.9 373.832 2149.72 375.586 2134.24 375.586H2072.38V250.634H2134.24C2149.72 250.634 2163.87 252.156 2176.79 255.199C2189.68 258.243 2200.12 264.198 2208.07 273.097C2216.03 281.996 2220 295.097 2220 312.399C2220 329.701 2216.03 342.239 2208.07 351.37Z" fill="#264123"/>
<path d="M2408.78 643.684V184.007C2408.78 175.835 2415.41 169.219 2423.59 169.219H2720.2C2728.39 169.219 2735.02 175.835 2735.02 184.007V235.846C2735.02 244.018 2728.39 250.634 2720.2 250.634H2499.48V367.15H2704.73C2712.91 367.15 2719.54 373.766 2719.54 381.938V433.083C2719.54 441.254 2712.91 447.87 2704.73 447.87H2499.48V577.023H2720.2C2728.39 577.023 2735.02 583.64 2735.02 591.811V643.651C2735.02 651.822 2728.39 658.439 2720.2 658.439H2423.59C2415.41 658.439 2408.78 651.822 2408.78 643.651V643.684Z" fill="#264123"/>
<path d="M1756.97 174.484H1519.01C1504.93 174.484 1492.01 182.226 1485.38 194.631L1364.73 420.153C1358.27 432.195 1358.8 446.784 1366.09 458.363L1484.95 647.23C1491.94 658.312 1504.14 665.061 1517.26 665.061H1758.8C1771.92 665.061 1784.11 658.345 1791.11 647.23L1909.97 458.363C1917.26 446.784 1917.76 432.228 1911.33 420.153L1790.67 194.631C1784.05 182.226 1771.12 174.484 1757.04 174.484H1756.97ZM1655.47 589.7C1547.25 600.385 1457.05 510.335 1467.78 402.322C1475.7 322.362 1540.49 257.719 1620.58 249.813C1728.81 239.127 1818.97 329.177 1808.27 437.19C1800.35 517.15 1735.57 581.793 1655.47 589.7Z" fill="#264123"/>
</svg>
